<?xml version="1.0" encoding="UTF-8"?>
<svg version="1.1" xmlns="http://www.w3.org/2000/svg" width="327" height="285">
<path d="M0 0 C1.2641272 -0.00307663 2.52825439 -0.00615326 3.83068848 -0.00932312 C5.20678887 -0.00240626 6.58288753 0.00486205 7.95898438 0.01245117 C9.40311644 0.01364768 10.8472493 0.01409514 12.29138184 0.01383972 C15.3310225 0.01540374 18.37054532 0.02366526 21.41015625 0.03710938 C25.20832597 0.05373832 29.00636392 0.0578073 32.80456543 0.05734444 C41.66084427 0.05745793 50.51568865 0.11234344 59.37133789 0.21759796 C60.83274912 0.23456223 62.29417619 0.25021016 63.75561523 0.26457977 C68.65775732 0.31302509 73.55772237 0.39943141 78.45898438 0.50463867 C79.71086548 0.51799759 80.96274658 0.53135651 82.25256348 0.54512024 C83.98379456 0.5921534 83.98379456 0.5921534 85.75 0.64013672 C86.75470337 0.65989059 87.75940674 0.67964447 88.79455566 0.69999695 C92.27941527 1.3859606 94.00323271 2.81885519 96.55273438 5.24291992 C97.90260438 8.41017589 97.71871404 11.76729552 97.74023438 15.18041992 C97.75441406 16.20006836 97.76859375 17.2197168 97.78320312 18.27026367 C97.48450284 22.12299103 96.54800321 24.85388428 94.29882812 27.99291992 C91.82543478 29.76358182 89.61645609 29.88677989 86.61523438 30.24291992 C80.95529779 30.90074509 80.95529779 30.90074509 76.55273438 34.24291992 C75.686233 37.19041458 75.686233 37.19041458 75.42773438 40.74291992 C75.31945312 41.76832886 75.31945312 41.76832886 75.20898438 42.81445312 C74.2887444 51.99602845 73.70980231 61.21523477 73.05664062 70.41870117 C72.60655589 76.65911282 72.07969939 82.88920268 71.49023438 89.11791992 C71.41095703 89.97281006 71.33167969 90.8277002 71.25 91.70849609 C71.17330078 92.50102783 71.09660156 93.29355957 71.01757812 94.11010742 C70.95175537 94.79186035 70.88593262 95.47361328 70.81811523 96.17602539 C70.55273438 98.24291992 70.55273438 98.24291992 70.05053711 100.67895508 C69.54754557 103.26964519 69.30118992 105.76709444 69.12304688 108.39916992 C69.05158447 109.40584717 68.98012207 110.41252441 68.90649414 111.44970703 C68.83100342 112.53646729 68.7555127 113.62322754 68.67773438 114.74291992 C67.98449577 124.24248644 67.13187594 133.71015418 66.11523438 143.18041992 C64.74866286 155.9339224 63.61533768 168.69888429 62.55493164 181.48095703 C61.97820811 188.41395395 61.37374764 195.33401586 60.55273438 202.24291992 C63.51813643 203.80185636 65.70003594 204.51328304 69.05273438 204.74291992 C72.36215815 204.96959278 74.71848269 205.46550785 77.55273438 207.24291992 C80.23549725 211.26706423 79.95623972 214.33016278 79.99023438 219.05541992 C80.02310547 219.85012695 80.05597656 220.64483398 80.08984375 221.46362305 C80.12721912 225.57151638 79.87553808 228.42577799 77.33789062 231.75463867 C72.34090013 236.21899063 66.44008308 235.38680811 60.05249023 235.37231445 C59.10233536 235.37406677 58.15218048 235.37581909 57.17323303 235.37762451 C54.03799606 235.38201954 50.90281566 235.37911351 47.76757812 235.37573242 C45.58712249 235.37640608 43.40666693 235.37737662 41.22621155 235.37863159 C36.65918258 235.38010533 32.09217318 235.37796416 27.52514648 235.37329102 C21.66842817 235.36759055 15.81175566 235.3708768 9.95503902 235.37686348 C5.4538183 235.38047491 0.95260846 235.37932787 -3.54861259 235.37673569 C-5.70839887 235.37606821 -7.86818614 235.3768886 -10.02797127 235.37921524 C-13.04414619 235.38175164 -16.06024664 235.37788729 -19.07641602 235.37231445 C-19.97055206 235.37433868 -20.86468811 235.37636292 -21.78591919 235.37844849 C-22.60877914 235.37562866 -23.4316391 235.37280884 -24.2794342 235.36990356 C-24.99193864 235.36952654 -25.70444307 235.36914951 -26.43853855 235.36876106 C-28.54572112 235.23675196 -30.41930279 234.8165793 -32.44726562 234.24291992 C-32.44726562 233.58291992 -32.44726562 232.92291992 -32.44726562 232.24291992 C-33.10726562 232.24291992 -33.76726562 232.24291992 -34.44726562 232.24291992 C-37.46089127 225.46226222 -37.20236362 217.82963538 -35.69726562 210.68041992 C-34.2351978 207.82938766 -33.18429709 206.88880652 -30.44726562 205.24291992 C-27.11460776 204.65211166 -23.81375499 204.36163294 -20.44335938 204.06323242 C-17.33014782 203.51242564 -17.33014782 203.51242564 -15.61523438 201.09838867 C-14.27572983 197.82354645 -13.74116523 194.94536839 -13.32226562 191.43041992 C-13.24226318 190.77299805 -13.16226074 190.11557617 -13.07983398 189.43823242 C-12.47641143 184.21971041 -12.17729688 178.99701509 -11.90722656 173.7512207 C-11.57759848 168.05776659 -10.85727951 162.45218437 -10.07226562 156.80541992 C-8.47793078 145.31790622 -7.43285322 133.80156217 -6.44970703 122.24902344 C-6.3899469 121.5567717 -6.33018677 120.86451996 -6.26861572 120.15129089 C-6.10585643 118.25937928 -5.9470826 116.36712602 -5.78857422 114.47485352 C-5.44726562 111.24291992 -5.44726562 111.24291992 -4.94946289 108.82885742 C-4.25112726 105.23295514 -4.02432224 101.61732796 -3.76367188 97.96948242 C-3.63937569 96.32234302 -3.51502488 94.67520774 -3.390625 93.02807617 C-3.200658 90.46388653 -3.01207761 87.89960358 -2.82495117 85.33520508 C-2.11695822 75.69337265 -1.23970481 66.15058572 0.10913086 56.57495117 C0.73591 51.86703609 1.107868 47.17118323 1.36523438 42.43041992 C1.42904297 41.56094727 1.49285156 40.69147461 1.55859375 39.7956543 C1.62723633 38.55332031 1.62723633 38.55332031 1.69726562 37.28588867 C1.76457886 36.18796997 1.76457886 36.18796997 1.83325195 35.06787109 C1.74068115 34.46563721 1.64811035 33.86340332 1.55273438 33.24291992 C-1.50776649 31.20258601 -2.79973027 30.94260529 -6.32226562 30.49291992 C-10.2275303 29.7107251 -13.25722966 28.94139677 -15.66992188 25.48120117 C-17.56650428 20.02018752 -17.32155232 13.88659126 -16.44726562 8.24291992 C-14.61617554 4.55488908 -13.53472332 2.69911817 -9.70397949 1.09208679 C-6.32251405 0.21039176 -3.48936506 -0.00450317 0 0 Z " fill="#449FD1" transform="translate(129.447265625,29.757080078125)"/>
<path d="M0 0 C1.2641272 -0.00307663 2.52825439 -0.00615326 3.83068848 -0.00932312 C5.20678887 -0.00240626 6.58288753 0.00486205 7.95898438 0.01245117 C9.40311644 0.01364768 10.8472493 0.01409514 12.29138184 0.01383972 C15.3310225 0.01540374 18.37054532 0.02366526 21.41015625 0.03710938 C25.20832597 0.05373832 29.00636392 0.0578073 32.80456543 0.05734444 C41.66084427 0.05745793 50.51568865 0.11234344 59.37133789 0.21759796 C60.83274912 0.23456223 62.29417619 0.25021016 63.75561523 0.26457977 C68.65775732 0.31302509 73.55772237 0.39943141 78.45898438 0.50463867 C79.71086548 0.51799759 80.96274658 0.53135651 82.25256348 0.54512024 C83.98379456 0.5921534 83.98379456 0.5921534 85.75 0.64013672 C86.75470337 0.65989059 87.75940674 0.67964447 88.79455566 0.69999695 C92.27941527 1.3859606 94.00323271 2.81885519 96.55273438 5.24291992 C97.90260438 8.41017589 97.71871404 11.76729552 97.74023438 15.18041992 C97.75441406 16.20006836 97.76859375 17.2197168 97.78320312 18.27026367 C97.48450284 22.12299103 96.54800321 24.85388428 94.29882812 27.99291992 C91.82543478 29.76358182 89.61645609 29.88677989 86.61523438 30.24291992 C80.95529779 30.90074509 80.95529779 30.90074509 76.55273438 34.24291992 C75.686233 37.19041458 75.686233 37.19041458 75.42773438 40.74291992 C75.31945312 41.76832886 75.31945312 41.76832886 75.20898438 42.81445312 C74.2887444 51.99602845 73.70980231 61.21523477 73.05664062 70.41870117 C72.60655589 76.65911282 72.07969939 82.88920268 71.49023438 89.11791992 C71.41095703 89.97281006 71.33167969 90.8277002 71.25 91.70849609 C71.17330078 92.50102783 71.09660156 93.29355957 71.01757812 94.11010742 C70.95175537 94.79186035 70.88593262 95.47361328 70.81811523 96.17602539 C70.55273438 98.24291992 70.55273438 98.24291992 70.05053711 100.67895508 C69.54754557 103.26964519 69.30118992 105.76709444 69.12304688 108.39916992 C69.05158447 109.40584717 68.98012207 110.41252441 68.90649414 111.44970703 C68.83100342 112.53646729 68.7555127 113.62322754 68.67773438 114.74291992 C67.98449577 124.24248644 67.13187594 133.71015418 66.11523438 143.18041992 C64.74866286 155.9339224 63.61533768 168.69888429 62.55493164 181.48095703 C61.97820811 188.41395395 61.37374764 195.33401586 60.55273438 202.24291992 C63.51813643 203.80185636 65.70003594 204.51328304 69.05273438 204.74291992 C72.36215815 204.96959278 74.71848269 205.46550785 77.55273438 207.24291992 C80.23549725 211.26706423 79.95623972 214.33016278 79.99023438 219.05541992 C80.02310547 219.85012695 80.05597656 220.64483398 80.08984375 221.46362305 C80.12721912 225.57151638 79.87553808 228.42577799 77.33789062 231.75463867 C72.34090013 236.21899063 66.44008308 235.38680811 60.05249023 235.37231445 C59.10233536 235.37406677 58.15218048 235.37581909 57.17323303 235.37762451 C54.03799606 235.38201954 50.90281566 235.37911351 47.76757812 235.37573242 C45.58712249 235.37640608 43.40666693 235.37737662 41.22621155 235.37863159 C36.65918258 235.38010533 32.09217318 235.37796416 27.52514648 235.37329102 C21.66842817 235.36759055 15.81175566 235.3708768 9.95503902 235.37686348 C5.4538183 235.38047491 0.95260846 235.37932787 -3.54861259 235.37673569 C-5.70839887 235.37606821 -7.86818614 235.3768886 -10.02797127 235.37921524 C-13.04414619 235.38175164 -16.06024664 235.37788729 -19.07641602 235.37231445 C-19.97055206 235.37433868 -20.86468811 235.37636292 -21.78591919 235.37844849 C-22.60877914 235.37562866 -23.4316391 235.37280884 -24.2794342 235.36990356 C-24.99193864 235.36952654 -25.70444307 235.36914951 -26.43853855 235.36876106 C-28.54572112 235.23675196 -30.41930279 234.8165793 -32.44726562 234.24291992 C-32.44726562 233.58291992 -32.44726562 232.92291992 -32.44726562 232.24291992 C-33.10726562 232.24291992 -33.76726562 232.24291992 -34.44726562 232.24291992 C-37.46089127 225.46226222 -37.20236362 217.82963538 -35.69726562 210.68041992 C-34.2351978 207.82938766 -33.18429709 206.88880652 -30.44726562 205.24291992 C-27.11460776 204.65211166 -23.81375499 204.36163294 -20.44335938 204.06323242 C-17.33014782 203.51242564 -17.33014782 203.51242564 -15.61523438 201.09838867 C-14.27572983 197.82354645 -13.74116523 194.94536839 -13.32226562 191.43041992 C-13.24226318 190.77299805 -13.16226074 190.11557617 -13.07983398 189.43823242 C-12.47641143 184.21971041 -12.17729688 178.99701509 -11.90722656 173.7512207 C-11.57759848 168.05776659 -10.85727951 162.45218437 -10.07226562 156.80541992 C-8.47793078 145.31790622 -7.43285322 133.80156217 -6.44970703 122.24902344 C-6.3899469 121.5567717 -6.33018677 120.86451996 -6.26861572 120.15129089 C-6.10585643 118.25937928 -5.9470826 116.36712602 -5.78857422 114.47485352 C-5.44726562 111.24291992 -5.44726562 111.24291992 -4.94946289 108.82885742 C-4.25112726 105.23295514 -4.02432224 101.61732796 -3.76367188 97.96948242 C-3.63937569 96.32234302 -3.51502488 94.67520774 -3.390625 93.02807617 C-3.200658 90.46388653 -3.01207761 87.89960358 -2.82495117 85.33520508 C-2.11695822 75.69337265 -1.23970481 66.15058572 0.10913086 56.57495117 C0.73591 51.86703609 1.107868 47.17118323 1.36523438 42.43041992 C1.42904297 41.56094727 1.49285156 40.69147461 1.55859375 39.7956543 C1.62723633 38.55332031 1.62723633 38.55332031 1.69726562 37.28588867 C1.76457886 36.18796997 1.76457886 36.18796997 1.83325195 35.06787109 C1.74068115 34.46563721 1.64811035 33.86340332 1.55273438 33.24291992 C-1.50776649 31.20258601 -2.79973027 30.94260529 -6.32226562 30.49291992 C-10.2275303 29.7107251 -13.25722966 28.94139677 -15.66992188 25.48120117 C-17.56650428 20.02018752 -17.32155232 13.88659126 -16.44726562 8.24291992 C-14.61617554 4.55488908 -13.53472332 2.69911817 -9.70397949 1.09208679 C-6.32251405 0.21039176 -3.48936506 -0.00450317 0 0 Z M2.55273438 13.24291992 C2.55273438 14.56291992 2.55273438 15.88291992 2.55273438 17.24291992 C4.00898888 17.91411541 5.46781305 18.57973799 6.92773438 19.24291992 C8.14589844 19.79979492 8.14589844 19.79979492 9.38867188 20.36791992 C11.47271871 21.36787005 11.47271871 21.36787005 13.55273438 21.24291992 C15.13776284 25.99800532 14.74316248 30.82471018 14.74023438 35.80541992 C14.74087891 36.92625977 14.74152344 38.04709961 14.7421875 39.2019043 C14.69539652 46.65017799 14.2888405 53.9418339 13.2644043 61.31933594 C12.66580799 65.65556122 12.4896832 69.80189161 12.61523438 74.16479492 C12.54939626 76.35391216 12.09069005 78.12095751 11.55273438 80.24291992 C11.2143759 82.7438227 10.90221117 85.24010354 10.61523438 87.74682617 C10.4407719 89.22404169 10.26629222 90.70125517 10.09179688 92.1784668 C9.82103141 94.49794227 9.55132857 96.81753799 9.28222656 99.13720703 C9.02085405 101.38239695 8.75569255 103.62711623 8.49023438 105.87182617 C8.4110376 106.56562881 8.33184082 107.25943146 8.25024414 107.97425842 C7.9056528 110.88048232 7.48172862 113.4559372 6.55273438 116.24291992 C6.33910056 117.745632 6.16340505 119.2539124 6.01196289 120.76416016 C5.91839005 121.68039658 5.8248172 122.596633 5.72840881 123.54063416 C5.63047531 124.5342244 5.53254181 125.52781464 5.43164062 126.55151367 C5.3268187 127.58744156 5.22199677 128.62336945 5.11399841 129.69068909 C4.77785856 133.02028451 4.44648425 136.35033482 4.11523438 139.68041992 C3.89614617 141.85818579 3.67674836 144.03592054 3.45703125 146.21362305 C3.02503504 150.49995406 2.59627888 154.78659089 2.16992188 159.07348633 C1.77176175 163.07143001 1.36566561 167.0684148 0.95117188 171.06469727 C0.85795151 171.9714772 0.76473114 172.87825714 0.66868591 173.81251526 C0.49616978 175.48831476 0.32158656 177.16390344 0.14442444 178.83921814 C-0.45000991 184.64907231 -0.68841632 190.40171408 -0.44726562 196.24291992 C-1.10726562 196.24291992 -1.76726562 196.24291992 -2.44726562 196.24291992 C-2.60582031 196.90678711 -2.764375 197.5706543 -2.92773438 198.25463867 C-4.40537093 203.84679912 -5.60897828 207.69484254 -10.44726562 211.24291992 C-15.60970576 213.86845278 -20.72254407 214.73178407 -26.44726562 215.24291992 C-26.44726562 217.88291992 -26.44726562 220.52291992 -26.44726562 223.24291992 C4.90273437 223.24291992 36.25273437 223.24291992 68.55273438 223.24291992 C68.55273438 220.60291992 68.55273438 217.96291992 68.55273438 215.24291992 C67.74449219 215.13334961 66.93625 215.0237793 66.10351562 214.91088867 C65.03488281 214.75233398 63.96625 214.5937793 62.86523438 214.43041992 C61.28162109 214.20418945 61.28162109 214.20418945 59.66601562 213.97338867 C56.34568242 213.19433935 54.24096068 212.33794742 51.55273438 210.24291992 C45.56114635 198.7664046 49.98180794 178.75472598 50.77954102 166.24511719 C50.99272358 162.89125897 51.19609933 159.53690129 51.3984375 156.18237305 C51.53132958 154.0397594 51.66477236 151.89717982 51.79882812 149.75463867 C51.85928818 148.75679855 51.91974823 147.75895844 51.98204041 146.73088074 C52.04202713 145.80503677 52.10201385 144.87919281 52.16381836 143.92529297 C52.21489243 143.11497116 52.26596649 142.30464935 52.31858826 141.46977234 C52.54563471 139.31044142 52.9987347 137.33833524 53.55273438 135.24291992 C53.65152192 133.84544178 53.70683531 132.44449883 53.72851562 131.04370117 C54.09969761 115.96124532 55.43880187 101.06243251 56.96777344 86.06176758 C57.14851767 84.28752444 57.32918175 82.51327314 57.50976562 80.73901367 C57.59922455 79.86166565 57.68868347 78.98431763 57.78085327 78.0803833 C58.37257014 72.21308337 58.89861454 66.34314838 59.37695312 60.46557617 C59.44062073 59.69401184 59.50428833 58.92244751 59.56988525 58.12750244 C59.93172036 53.73209029 59.93172036 53.73209029 60.27264404 49.33502197 C61.9335172 27.23631097 61.9335172 27.23631097 67.17773438 21.24291992 C71.1766477 18.87319351 75.23726188 16.95951898 79.55273438 15.24291992 C75.81174053 12.74892403 73.88937674 13.00069024 69.41918945 13.01586914 C68.335886 13.01543106 68.335886 13.01543106 67.23069763 13.01498413 C64.84443126 13.01637707 62.45847743 13.03193639 60.07226562 13.04760742 C58.41745677 13.05133768 56.76264571 13.05418459 55.10783386 13.05618286 C50.7528778 13.06381829 46.3980552 13.08346599 42.04315186 13.10559082 C37.59909877 13.12605119 33.15502411 13.13518499 28.7109375 13.14526367 C19.99147523 13.16671199 11.2721214 13.20084682 2.55273438 13.24291992 Z " fill="#F7F9FA" transform="translate(129.447265625,29.757080078125)"/>
<path d="M0 0 C1.13244141 0.02707031 2.26488281 0.05414063 3.43164062 0.08203125 C5.07229492 0.14197266 5.07229492 0.14197266 6.74609375 0.203125 C7.74181396 0.23567383 8.73753418 0.26822266 9.76342773 0.30175781 C13.01081415 0.82179283 14.91771602 1.81644962 17.5625 3.75 C20.43624494 8.06061742 20.49614652 11.69645294 19.5625 16.75 C17.70336386 20.16046829 15.13243714 22.85548602 12.5625 25.75 C10.72150684 28.04037497 8.92540151 30.36515293 7.125 32.6875 C4.49292891 36.05776323 1.84767394 39.40706355 -0.88671875 42.6953125 C-1.60472656 43.55898437 -2.32273438 44.42265625 -3.0625 45.3125 C-3.69414063 46.05628906 -4.32578125 46.80007812 -4.9765625 47.56640625 C-6.68829606 50.12485293 -7.38053874 51.65985182 -7.4375 54.75 C-5.85287268 57.42203087 -5.85287268 57.42203087 -3.5625 59.875 C0.48355263 64.51315789 0.48355263 64.51315789 1.5625 67.75 C2.2225 67.75 2.8825 67.75 3.5625 67.75 C4.89111328 69.27880859 4.89111328 69.27880859 6.3828125 71.3984375 C6.91777344 72.15640625 7.45273438 72.914375 8.00390625 73.6953125 C8.55949219 74.49710937 9.11507812 75.29890625 9.6875 76.125 C10.53248047 77.31609375 10.53248047 77.31609375 11.39453125 78.53125 C15.5625 84.48549107 15.5625 84.48549107 15.5625 86.75 C16.2225 86.75 16.8825 86.75 17.5625 86.75 C20.39923433 91.87794282 20.81112351 94.92520801 19.59375 100.63671875 C18.12411369 103.64835983 16.34705595 104.89885323 13.5625 106.75 C9.28228182 107.45770161 5.03186759 107.36710696 0.69750977 107.32641602 C-1.3667149 107.31255563 -3.42639261 107.34663289 -5.49023438 107.38476562 C-16.58403858 107.36841112 -16.58403858 107.36841112 -20.109375 104.56640625 C-22.40356319 101.79105443 -24.65395768 99.05393295 -26.75 96.125 C-29.75463558 92.00940672 -32.81811255 87.99224358 -36.0625 84.0625 C-38.89907901 80.62271175 -41.72766765 77.17941157 -44.5 73.6875 C-45.06847656 72.97464844 -45.63695312 72.26179688 -46.22265625 71.52734375 C-47.4375 69.75 -47.4375 69.75 -47.4375 67.75 C-48.0975 67.75 -48.7575 67.75 -49.4375 67.75 C-50.91015625 66.0703125 -50.91015625 66.0703125 -52.5 63.875 C-53.02722656 63.15570313 -53.55445313 62.43640625 -54.09765625 61.6953125 C-56.51624087 58.18378147 -56.9434065 55.56624881 -56.9296875 51.34765625 C-55.99189309 46.39818576 -52.80512537 42.39953066 -49.4375 38.75 C-48.7775 38.75 -48.1175 38.75 -47.4375 38.75 C-47.210625 38.22535156 -46.98375 37.70070312 -46.75 37.16015625 C-44.97967697 33.9092952 -42.72023727 31.08657633 -40.4375 28.1875 C-38.01638121 25.09192668 -35.6193227 22.02273406 -33.4375 18.75 C-32.7775 18.75 -32.1175 18.75 -31.4375 18.75 C-31.18613281 18.20472656 -30.93476562 17.65945312 -30.67578125 17.09765625 C-29.1942607 14.28884284 -27.46617427 11.77500113 -25.625 9.1875 C-24.95855469 8.23746094 -24.29210937 7.28742188 -23.60546875 6.30859375 C-17.07151927 -1.40264392 -9.28543621 -0.34761134 0 0 Z " fill="#F7F8F7" transform="translate(88.4375,89.25)"/>
<path d="M0 0 C1.95292969 -0.05510742 1.95292969 -0.05510742 3.9453125 -0.11132812 C14.64657968 -0.1604666 14.64657968 -0.1604666 18.75390625 3.23828125 C20.29882812 4.89282227 20.29882812 4.89282227 21.625 6.5625 C22.41003906 7.48546875 23.19507813 8.4084375 24.00390625 9.359375 C24.72449219 10.33390625 25.44507813 11.3084375 26.1875 12.3125 C27.03953672 13.44983941 27.89245465 14.58651902 28.74609375 15.72265625 C29.20226074 16.33383301 29.65842773 16.94500977 30.12841797 17.57470703 C32.36028976 20.53912793 34.63744987 23.46760552 36.91723633 26.39526367 C38.13606577 27.96121678 39.35077587 29.5303851 40.5612793 31.1027832 C43.05672153 34.33406539 45.53909661 37.53414021 48.296875 40.546875 C51.88368461 44.54069846 54.15972939 47.55401924 54.6875 53 C54.19851359 59.98552019 49.57249627 64.94543218 44.625 69.5625 C43.965 69.5625 43.305 69.5625 42.625 69.5625 C42.356875 70.119375 42.08875 70.67625 41.8125 71.25 C40.51600504 73.77475334 39.20023677 76.19964484 37.625 78.5625 C36.965 78.5625 36.305 78.5625 35.625 78.5625 C35.13 80.5425 35.13 80.5425 34.625 82.5625 C33.965 82.5625 33.305 82.5625 32.625 82.5625 C32.35171875 83.14225586 32.0784375 83.72201172 31.796875 84.31933594 C29.81953084 88.10430221 27.17995563 91.40187527 24.625 94.8125 C24.0784375 95.55757813 23.531875 96.30265625 22.96875 97.0703125 C22.4428125 97.77414063 21.916875 98.47796875 21.375 99.203125 C20.89546875 99.84797852 20.4159375 100.49283203 19.921875 101.15722656 C19.49390625 101.6209668 19.0659375 102.08470703 18.625 102.5625 C17.965 102.5625 17.305 102.5625 16.625 102.5625 C16.625 103.2225 16.625 103.8825 16.625 104.5625 C10.74365404 107.2664896 5.12032062 106.93046097 -1.25 106.9375 C-2.40886719 106.96199219 -3.56773437 106.98648438 -4.76171875 107.01171875 C-11.50270073 107.03483069 -15.95366492 106.71731235 -21.375 102.5625 C-23.50033009 98.31183982 -23.37982352 94.13941595 -22.375 89.5625 C-19.70244372 85.19164601 -16.46992903 81.46403401 -13.10888672 77.61181641 C-9.19717337 72.98848188 -5.62206629 68.0825707 -1.97216797 63.25170898 C-1.40256348 62.51122314 -0.83295898 61.7707373 -0.24609375 61.0078125 C0.25994385 60.34281738 0.76598145 59.67782227 1.28735352 58.99267578 C1.72877686 58.52071777 2.1702002 58.04875977 2.625 57.5625 C3.285 57.5625 3.945 57.5625 4.625 57.5625 C5.48554011 54.81583164 5.48554011 54.81583164 5.625 51.5625 C4.02784838 48.76580334 4.02784838 48.76580334 1.6875 46.3125 C-2.375 41.7134434 -2.375 41.7134434 -2.375 39.5625 C-3.035 39.5625 -3.695 39.5625 -4.375 39.5625 C-6.00639937 37.63662421 -7.51223225 35.71923283 -9 33.6875 C-9.42023438 33.13191406 -9.84046875 32.57632813 -10.2734375 32.00390625 C-13.375 27.82485288 -13.375 27.82485288 -13.375 25.5625 C-14.035 25.5625 -14.695 25.5625 -15.375 25.5625 C-20.2377763 20.94286252 -22.1232086 16.29518297 -22.375 9.5625 C-21.22957644 5.85671791 -20.27204021 4.22373262 -17.16552734 1.93383789 C-11.82128548 -0.69246189 -5.84666597 0.00863189 0 0 Z " fill="#F6F8F8" transform="translate(234.375,89.4375)"/>
<path d="M0 0 C-1.40255209 2.87929554 -2.88244059 5.29949597 -4.875 7.8125 C-5.80505859 8.99005859 -5.80505859 8.99005859 -6.75390625 10.19140625 C-8.92534303 12.90664632 -11.09931602 15.61982338 -13.27514648 18.33154297 C-15.34047299 20.90885529 -17.3985708 23.49190952 -19.45703125 26.07470703 C-20.97097286 27.96378038 -22.50025893 29.83957956 -24.03125 31.71484375 C-24.95892093 32.87192498 -25.88603139 34.02945585 -26.8125 35.1875 C-27.64394531 36.21230469 -28.47539063 37.23710937 -29.33203125 38.29296875 C-31.17118445 40.7594633 -31.17118445 40.7594633 -31.02734375 43.0390625 C-29.59814744 45.76703417 -27.77865598 47.86763373 -25.75 50.1875 C-19.67231838 57.26075094 -14.07694644 64.67734866 -8.44628906 72.10742188 C-6.0398564 75.25642019 -3.5653512 78.35134513 -1.07421875 81.43359375 C0 83 0 83 0 85 C-17.3309595 87.19623634 -17.3309595 87.19623634 -22.86474609 83.88378906 C-26.14976218 80.77899042 -28.38164407 76.94827302 -30.67822266 73.08789062 C-33.02178925 69.38597309 -35.87992962 66.10468666 -38.6875 62.75 C-39.78175563 61.40772166 -40.87425404 60.06400857 -41.96484375 58.71875 C-43.82151443 56.43897431 -45.68753842 54.16775348 -47.56640625 51.90625 C-48.28699219 51.0296875 -49.00757813 50.153125 -49.75 49.25 C-50.67039063 48.14398438 -50.67039063 48.14398438 -51.609375 47.015625 C-53.96123799 43.60674493 -53.96123799 43.60674493 -54 41 C-52.66514083 38.85075427 -51.35521118 37.05493281 -49.75 35.125 C-49.29616943 34.55837646 -48.84233887 33.99175293 -48.37475586 33.40795898 C-47.41142476 32.20573366 -46.4431003 31.00749505 -45.47021484 29.81298828 C-43.59138082 27.49611325 -41.75332623 25.14915306 -39.92163086 22.79492188 C-39.00993625 21.6328265 -38.08736479 20.47918852 -37.15454102 19.33398438 C-34.72179811 16.32974664 -32.56854113 13.35370655 -30.6328125 10.00390625 C-23.01037326 -2.46987864 -13.70827183 -1.65072481 0 0 Z " fill="#3888C5" transform="translate(97,100)"/>
<path d="M0 0 C3.5196947 -0.23413602 7.03737584 -0.37497976 10.5625 -0.5 C12.0484668 -0.60054688 12.0484668 -0.60054688 13.56445312 -0.703125 C20.81628721 -0.89586478 20.81628721 -0.89586478 24.09228516 1.58349609 C25.90251893 3.63509437 27.45952354 5.74039778 29 8 C29.89301323 9.12361531 30.79351729 10.24133829 31.703125 11.3515625 C32.55437915 12.44091821 33.40330101 13.53210005 34.25 14.625 C35.19262408 15.83339906 36.13533515 17.04173027 37.078125 18.25 C37.55572266 18.86359375 38.03332031 19.4771875 38.52539062 20.109375 C41.46438618 23.87751764 44.42634995 27.62767494 47.38378906 31.38134766 C48.59251779 32.91828924 49.79646534 34.45898771 51 36 C51.61875 36.68835938 52.2375 37.37671875 52.875 38.0859375 C54 40 54 40 53.953125 42.421875 C52.74775742 45.68229549 51.05646585 47.64592566 48.75 50.25 C45.05202001 54.51365738 41.51651971 58.8589361 38.10839844 63.35864258 C36.99235883 64.83066033 35.8666232 66.29537575 34.73144531 67.75268555 C32.26534745 70.92744463 29.90975555 74.03972688 27.91015625 77.53125 C25.78519172 80.90338184 24.38870077 82.86687362 21 85 C14.07682126 86.27140554 6.96439834 85.68110311 0 85 C1.55611528 79.96437229 4.60716069 76.52422412 7.9375 72.5625 C9.11429246 71.14015895 10.29005483 69.71696508 11.46484375 68.29296875 C12.0563623 67.57802246 12.64788086 66.86307617 13.25732422 66.12646484 C16.33892677 62.36620171 19.32289043 58.53030017 22.30834961 54.69360352 C25.8207304 50.19116484 25.8207304 50.19116484 27.45703125 48.44628906 C30.29307065 45.42400792 30.29307065 45.42400792 31.07421875 41.484375 C29.70685208 38.3220288 27.95798638 35.95198285 25.8125 33.25 C25.37905273 32.70069824 24.94560547 32.15139648 24.49902344 31.58544922 C23.01231251 29.71281507 21.50870488 27.85495748 20 26 C19.42362793 25.29069336 18.84725586 24.58138672 18.25341797 23.85058594 C12.63392395 16.95400272 7.01488837 10.06566334 1.07519531 3.44091797 C0 2 0 2 0 0 Z " fill="#4095CC" transform="translate(222,100)"/>
<path d="M0 0 C30.36 0 60.72 0 92 0 C92 2.31 92 4.62 92 7 C90.78763672 7.27263672 90.78763672 7.27263672 89.55078125 7.55078125 C88.48214844 7.80214844 87.41351563 8.05351563 86.3125 8.3125 C84.72888672 8.67794922 84.72888672 8.67794922 83.11328125 9.05078125 C79.82860857 10.05225611 77.65333107 10.80772476 75 13 C71.99426629 19.51163957 71.26613466 25.6855498 70.68359375 32.78515625 C70.58160172 33.9178746 70.47960968 35.05059296 70.37452698 36.21763611 C70.05160515 39.83174721 69.74429271 43.44698777 69.4375 47.0625 C69.22824466 49.43303395 69.01796676 51.80347788 68.80664062 54.17382812 C68.00038913 63.26558446 67.22215768 72.35965522 66.45556641 81.45483398 C65.64872417 90.9760353 64.83433278 100.47253505 63.5 109.9375 C62.99659273 113.62454336 62.49792283 117.3122125 62 121 C61.84023682 122.15177734 61.68047363 123.30355469 61.51586914 124.49023438 C60.00649617 135.83968262 59.19051227 147.2034849 58.4375 158.625 C58.24932325 161.45175777 58.05977029 164.27839896 57.86671448 167.10482788 C57.74797318 168.84537096 57.63202755 170.5861079 57.51939392 172.32705688 C57.22884923 176.60818413 56.79680886 180.77559424 56 185 C55.67 185 55.34 185 55 185 C55.4715091 171.81499565 56.09016287 158.64044726 56.86895752 145.47018433 C56.95613701 143.99314766 57.04203926 142.51603504 57.12664795 141.03884888 C57.24707832 138.94751214 57.37273769 136.85655583 57.5 134.765625 C57.60828125 132.95239746 57.60828125 132.95239746 57.71875 131.10253906 C57.94720493 128.58239564 58.36656087 126.42898922 59 124 C59.09878754 122.60252186 59.15410094 121.20157891 59.17578125 119.80078125 C59.54696324 104.7183254 60.8860675 89.81951259 62.41503906 74.81884766 C62.59578329 73.04460452 62.77644737 71.27035322 62.95703125 69.49609375 C63.04649017 68.61874573 63.1359491 67.74139771 63.2281189 66.83746338 C63.81983576 60.97016345 64.34588016 55.10022846 64.82421875 49.22265625 C64.88788635 48.45109192 64.95155396 47.67952759 65.01715088 46.88458252 C65.37898599 42.48917037 65.37898599 42.48917037 65.71990967 38.09210205 C67.46279109 14.902232 67.46279109 14.902232 73.1875 9.4375 C76.84620203 6.78728635 80.71212595 5.35406549 85 4 C82.02310242 2.51155121 79.3013618 2.83408395 75.97998047 2.79467773 C75.25792419 2.78477814 74.53586792 2.77487854 73.79193115 2.76467896 C71.40038352 2.73303969 69.00881601 2.70829701 66.6171875 2.68359375 C64.96094236 2.66302631 63.30470249 2.6420299 61.64846802 2.62062073 C57.28538276 2.56537833 52.92224996 2.51597863 48.55908203 2.46777344 C44.10835531 2.41757423 39.65769777 2.36187993 35.20703125 2.30664062 C26.47141264 2.19903253 17.73573621 2.09759347 9 2 C9 3.32 9 4.64 9 6 C9.886875 6.103125 10.77375 6.20625 11.6875 6.3125 C16.59438359 7.3309098 19.21486635 8.82229952 22 13 C22.25878906 15.34985352 22.25878906 15.34985352 22.265625 18.12890625 C22.27142578 19.66901367 22.27142578 19.66901367 22.27734375 21.24023438 C22.26832031 22.33658203 22.25929687 23.43292969 22.25 24.5625 C22.24613281 25.68333984 22.24226563 26.80417969 22.23828125 27.95898438 C22.16179469 35.39942668 21.73449499 42.70603396 20.71191406 50.07641602 C20.11278925 54.41260851 19.93694857 58.5589628 20.0625 62.921875 C19.99666189 65.11099224 19.53795568 66.87803758 19 69 C18.66164152 71.50090278 18.3494768 73.99718362 18.0625 76.50390625 C17.88803753 77.98112176 17.71355784 79.45833524 17.5390625 80.93554688 C17.26829703 83.25502235 16.9985942 85.57461807 16.72949219 87.89428711 C16.46811967 90.13947703 16.20295818 92.38419631 15.9375 94.62890625 C15.81870483 95.66961021 15.81870483 95.66961021 15.69750977 96.7313385 C15.35291842 99.6375624 14.92899424 102.21301728 14 105 C13.79191725 106.44450918 13.62129268 107.8946011 13.47509766 109.34667969 C13.38465683 110.22841354 13.294216 111.1101474 13.20103455 112.01860046 C13.10633377 112.97668106 13.011633 113.93476166 12.9140625 114.921875 C12.8124733 115.92269608 12.71088409 116.92351715 12.60621643 117.95466614 C12.27576062 121.21944617 11.95028803 124.48470137 11.625 127.75 C11.40038023 129.98041092 11.17552614 132.21079826 10.95043945 134.44116211 C9.2541136 151.28958327 7.59804062 168.14196505 6 185 C5.34 185 4.68 185 4 185 C3.87625 186.27875 3.7525 187.5575 3.625 188.875 C3.25 192.75 3.25 192.75 1 195 C1.45027267 190.85325042 1.9116874 186.70781125 2.375 182.5625 C2.50132813 181.39783203 2.62765625 180.23316406 2.7578125 179.03320312 C2.88671875 177.88916016 3.015625 176.74511719 3.1484375 175.56640625 C3.26364746 174.52427979 3.37885742 173.48215332 3.49755859 172.40844727 C3.88552218 169.77659126 4.38397197 167.31505445 5.00439453 164.73779297 C6.15240085 159.7166752 6.50363307 154.76222458 6.78125 149.62890625 C6.84026489 148.66653549 6.89927979 147.70416473 6.96008301 146.71263123 C7.14687229 143.66295005 7.32456176 140.61285383 7.5 137.5625 C7.73161349 133.54244275 7.97252861 129.52309226 8.21875 125.50390625 C8.26777466 124.59943253 8.31679932 123.6949588 8.36730957 122.76307678 C8.69057933 117.49499158 9.41213678 112.48430162 10.51742554 107.32429504 C11.19530363 104.05933011 11.62279046 100.78061889 12.03515625 97.47265625 C12.11842163 96.80592392 12.20168701 96.13919159 12.28747559 95.45225525 C12.55090397 93.32292228 12.80742571 91.19284878 13.0625 89.0625 C13.19614456 87.96143921 13.19614456 87.96143921 13.33248901 86.83813477 C14.41776565 77.85063028 15.33000346 68.90577569 15.63476562 59.85351562 C15.93201729 52.17336211 16.94419958 44.58549812 17.98461914 36.97460938 C20.21944178 24.47441882 20.21944178 24.47441882 16.95703125 12.89453125 C13.56817366 10.72333451 10.58700454 9.67148713 6.6875 8.6875 C5.43324219 8.36136719 4.17898437 8.03523438 2.88671875 7.69921875 C1.93410156 7.46847656 0.98148437 7.23773438 0 7 C0 4.69 0 2.38 0 0 Z " fill="#A4E9F1" transform="translate(123,41)"/>
<path d="M0 0 C3.5196947 -0.23413602 7.03737584 -0.37497976 10.5625 -0.5 C12.0484668 -0.60054688 12.0484668 -0.60054688 13.56445312 -0.703125 C20.81628721 -0.89586478 20.81628721 -0.89586478 24.09228516 1.58349609 C25.90251893 3.63509437 27.45952354 5.74039778 29 8 C29.89301323 9.12361531 30.79351729 10.24133829 31.703125 11.3515625 C32.55437915 12.44091821 33.40330101 13.53210005 34.25 14.625 C35.19262408 15.83339906 36.13533515 17.04173027 37.078125 18.25 C37.55572266 18.86359375 38.03332031 19.4771875 38.52539062 20.109375 C41.46438618 23.87751764 44.42634995 27.62767494 47.38378906 31.38134766 C48.59251779 32.91828924 49.79646534 34.45898771 51 36 C51.61875 36.68835938 52.2375 37.37671875 52.875 38.0859375 C54 40 54 40 53.953125 42.421875 C52.74775742 45.68229549 51.05646585 47.64592566 48.75 50.25 C43.76473677 55.9946324 39.13827751 61.96711812 34.55566406 68.03613281 C31.46789736 72.11550717 28.30910797 76.09757692 25 80 C24.67 79.01 24.34 78.02 24 77 C24.66 76.01 25.32 75.02 26 74 C26.66 74 27.32 74 28 74 C28.66 72.35 29.32 70.7 30 69 C30.66 69 31.32 69 32 69 C32.33064453 67.97712891 32.33064453 67.97712891 32.66796875 66.93359375 C34.37768932 63.16819742 36.72017675 60.26073147 39.3125 57.0625 C39.78623047 56.46759766 40.25996094 55.87269531 40.74804688 55.25976562 C44.61953671 50.41378314 44.61953671 50.41378314 46.50537109 48.36279297 C49.23187161 45.53274443 49.23187161 45.53274443 50 41.84375 C48.86688361 39.75456666 47.63641633 38.22732835 46 36.5 C42.17329808 32.28361357 38.80071251 27.81591071 35.4140625 23.2421875 C32.42562129 19.20890603 29.35073096 15.24285063 26.27416992 11.27661133 C24.43083103 8.89297703 22.67262014 6.50893021 21 4 C17.65386488 3.41312216 17.65386488 3.41312216 13.875 3.3125 C12.59367188 3.24675781 11.31234375 3.18101563 9.9921875 3.11328125 C9.00476563 3.07589844 8.01734375 3.03851563 7 3 C10.76892962 8.12993198 14.68835305 13.11208726 18.6875 18.0625 C24.70947776 25.52922085 30.39305736 33.21871149 36 41 C34.6799177 43.84124191 33.20153376 46.16223933 31.20703125 48.57421875 C30.66199951 49.23808594 30.11696777 49.90195313 29.55541992 50.5859375 C28.98025635 51.27945313 28.40509277 51.97296875 27.8125 52.6875 C26.63731307 54.11790839 25.46282916 55.54889467 24.2890625 56.98046875 C23.72348633 57.66931152 23.15791016 58.3581543 22.57519531 59.06787109 C19.64797583 62.65838798 16.81196647 66.31888025 14 70 C13.01 69.67 12.02 69.34 11 69 C12.08333333 67.64583333 13.16666667 66.29166667 14.25 64.9375 C14.96542969 64.03515625 15.68085938 63.1328125 16.41796875 62.203125 C18.31772415 59.82369462 20.26837186 57.49349205 22.23828125 55.171875 C22.78774414 54.51324463 23.33720703 53.85461426 23.90332031 53.17602539 C24.99881114 51.86308061 26.10609513 50.55987585 27.22558594 49.26733398 C30.20789829 45.77072359 30.20789829 45.77072359 31.1015625 41.41015625 C29.68755451 38.31638699 27.93084068 35.91779609 25.8125 33.25 C25.37905273 32.70069824 24.94560547 32.15139648 24.49902344 31.58544922 C23.01231251 29.71281507 21.50870488 27.85495748 20 26 C19.42362793 25.29069336 18.84725586 24.58138672 18.25341797 23.85058594 C12.63392395 16.95400272 7.01488837 10.06566334 1.07519531 3.44091797 C0 2 0 2 0 0 Z " fill="#80CFE8" transform="translate(222,100)"/>
<path d="M0 0 C1.02673828 0.02707031 2.05347656 0.05414063 3.11132812 0.08203125 C5.63887576 0.15256746 8.16210043 0.25106571 10.6875 0.375 C9.28494791 3.25429554 7.80505941 5.67449597 5.8125 8.1875 C4.88244141 9.36505859 4.88244141 9.36505859 3.93359375 10.56640625 C1.76215697 13.28164632 -0.41181602 15.99482338 -2.58764648 18.70654297 C-4.65297299 21.28385529 -6.7110708 23.86690952 -8.76953125 26.44970703 C-10.28347286 28.33878038 -11.81275893 30.21457956 -13.34375 32.08984375 C-14.27142093 33.24692498 -15.19853139 34.40445585 -16.125 35.5625 C-16.95644531 36.58730469 -17.78789063 37.61210937 -18.64453125 38.66796875 C-20.48231739 41.13393188 -20.48231739 41.13393188 -20.34375 43.41015625 C-18.89900496 46.16283336 -17.04897301 48.28518393 -15 50.625 C-8.71901219 57.91980216 -3.02890423 65.63526369 2.6875 73.375 C1.6975 73.87 1.6975 73.87 0.6875 74.375 C0.6875 73.715 0.6875 73.055 0.6875 72.375 C-0.2111377 71.98344727 -0.2111377 71.98344727 -1.12792969 71.58398438 C-3.46124401 70.29268212 -4.6189881 69.10778596 -6.265625 67.03125 C-6.79913574 66.36641602 -7.33264648 65.70158203 -7.88232422 65.01660156 C-8.43678223 64.30987305 -8.99124023 63.60314453 -9.5625 62.875 C-10.71602851 61.42178186 -11.86967426 59.96865678 -13.0234375 58.515625 C-13.58256836 57.80728516 -14.14169922 57.09894531 -14.71777344 56.36914062 C-16.1087455 54.6297867 -17.52686736 52.92475312 -18.9765625 51.234375 C-19.70617187 50.37328125 -20.43578125 49.5121875 -21.1875 48.625 C-21.82429688 47.88765625 -22.46109375 47.1503125 -23.1171875 46.390625 C-24.3125 44.375 -24.3125 44.375 -24.21875 42.4453125 C-19.96732009 32.73299416 -12.18382615 24.20758828 -5.59472656 15.98193359 C-3.75059037 13.67079414 -1.93692677 11.33643188 -0.125 9 C0.42542969 8.29101562 0.97585937 7.58203125 1.54296875 6.8515625 C1.92066406 6.36429687 2.29835937 5.87703125 2.6875 5.375 C-0.97875293 3.54187354 -4.35050908 3.3395501 -8.3125 4.375 C-14.86363798 9.57770478 -19.62131128 17.31890856 -24.46484375 24.1015625 C-25.07457031 24.85179688 -25.68429688 25.60203125 -26.3125 26.375 C-26.9725 26.375 -27.6325 26.375 -28.3125 26.375 C-28.3125 27.035 -28.3125 27.695 -28.3125 28.375 C-30.57555649 30.88950721 -32.48115512 32.98242047 -35.5625 34.4375 C-37.53344022 35.2403367 -37.53344022 35.2403367 -38.0625 37.5 C-38.18625 38.428125 -38.18625 38.428125 -38.3125 39.375 C-39.3025 39.045 -40.2925 38.715 -41.3125 38.375 C-40.59707031 37.48941406 -39.88164063 36.60382813 -39.14453125 35.69140625 C-32.90423125 27.94157821 -26.77177043 20.1216837 -20.7668457 12.18774414 C-19.75739618 10.85718593 -18.73757633 9.53441551 -17.70629883 8.22070312 C-16.29849428 6.42375189 -16.29849428 6.42375189 -15.22143555 4.56054688 C-11.42403804 -1.26550323 -6.22203136 -0.31050444 0 0 Z " fill="#81CEE7" transform="translate(86.3125,99.625)"/>
<path d="M0 0 C0.33 0 0.66 0 1 0 C1.02911321 3.0833134 1.04683682 6.16659125 1.0625 9.25 C1.07087891 10.12269531 1.07925781 10.99539062 1.08789062 11.89453125 C1.09272461 13.16103516 1.09272461 13.16103516 1.09765625 14.453125 C1.10551147 15.61569824 1.10551147 15.61569824 1.11352539 16.80175781 C0.99899746 19.01941263 0.54362822 20.85023025 0 23 C-0.33835848 25.50090278 -0.6505232 27.99718362 -0.9375 30.50390625 C-1.11196247 31.98112176 -1.28644216 33.45833524 -1.4609375 34.93554688 C-1.73170297 37.25502235 -2.0014058 39.57461807 -2.27050781 41.89428711 C-2.53188033 44.13947703 -2.79704182 46.38419631 -3.0625 48.62890625 C-3.14169678 49.32270889 -3.22089355 50.01651154 -3.30249023 50.7313385 C-3.64708158 53.6375624 -4.07100576 56.21301728 -5 59 C-5.20808275 60.44450918 -5.37870732 61.8946011 -5.52490234 63.34667969 C-5.61534317 64.22841354 -5.705784 65.1101474 -5.79896545 66.01860046 C-5.89366623 66.97668106 -5.988367 67.93476166 -6.0859375 68.921875 C-6.1875267 69.92269608 -6.28911591 70.92351715 -6.39378357 71.95466614 C-6.72423938 75.21944617 -7.04971197 78.48470137 -7.375 81.75 C-7.59961977 83.98041092 -7.82447386 86.21079826 -8.04956055 88.44116211 C-9.7458864 105.28958327 -11.40195938 122.14196505 -13 139 C-13.66 139 -14.32 139 -15 139 C-15.12375 140.27875 -15.2475 141.5575 -15.375 142.875 C-15.75 146.75 -15.75 146.75 -18 149 C-17.54972733 144.85325042 -17.0883126 140.70781125 -16.625 136.5625 C-16.49867187 135.39783203 -16.37234375 134.23316406 -16.2421875 133.03320312 C-16.11328125 131.88916016 -15.984375 130.74511719 -15.8515625 129.56640625 C-15.73635254 128.52427979 -15.62114258 127.48215332 -15.50244141 126.40844727 C-15.11447782 123.77659126 -14.61602803 121.31505445 -13.99560547 118.73779297 C-12.84759915 113.7166752 -12.49636693 108.76222458 -12.21875 103.62890625 C-12.15973511 102.66653549 -12.10072021 101.70416473 -12.03991699 100.71263123 C-11.85312771 97.66295005 -11.67543824 94.61285383 -11.5 91.5625 C-11.26838651 87.54244275 -11.02747139 83.52309226 -10.78125 79.50390625 C-10.73222534 78.59943253 -10.68320068 77.6949588 -10.63269043 76.76307678 C-10.31227385 71.54148783 -9.58628796 66.59401378 -8.49154663 61.48091125 C-7.66832897 57.32600543 -7.25329516 53.13590204 -6.81640625 48.92578125 C-6.60883035 47.02147278 -6.40114456 45.11717628 -6.19335938 43.21289062 C-5.87751879 40.26919775 -5.56385219 37.32529415 -5.25268555 34.38110352 C-4.01947771 22.77804858 -2.58248281 11.38898304 0 0 Z " fill="#82C4DF" transform="translate(142,87)"/>
<path d="M0 0 C1.79206547 0.14084796 3.58364917 0.28783701 5.375 0.4375 C6.87160156 0.55931641 6.87160156 0.55931641 8.3984375 0.68359375 C11 1 11 1 13 2 C13 3.98 13 5.96 13 8 C-17.69 8 -48.38 8 -80 8 C-80 6.02 -80 4.04 -80 2 C-78.35 2 -76.7 2 -75 2 C-75.66 2.66 -76.32 3.32 -77 4 C-68.6647708 4.83163603 -60.44352993 5.12459025 -52.0703125 5.0625 C-50.87751678 5.05871338 -49.68472107 5.05492676 -48.45578003 5.05102539 C-43.41139318 5.03486052 -38.36709133 5.00669935 -33.32275391 4.97949219 C-29.6136107 4.96124656 -25.90448109 4.94925618 -22.1953125 4.9375 C-21.08028351 4.92920166 -19.96525452 4.92090332 -18.81643677 4.91235352 C-10.83864062 4.88798408 -2.94925792 5.33755406 5 6 C5 5.01 5 4.02 5 3 C3.35 2.34 1.7 1.68 0 1 C0 0.67 0 0.34 0 0 Z " fill="#4385C2" transform="translate(184,245)"/>
<path d="M0 0 C0.33 0 0.66 0 1 0 C1.43583822 11.00895066 0.68150966 21.80327362 -0.4375 32.75 C-0.50498444 33.41606262 -0.57246887 34.08212524 -0.64199829 34.76837158 C-1.78335462 45.92521117 -1.78335462 45.92521117 -2.52026367 49.58105469 C-3.02384204 52.12021727 -3.25492634 54.57414202 -3.4296875 57.15625 C-3.5011499 58.16292725 -3.5726123 59.16960449 -3.64624023 60.20678711 C-3.72173096 61.29354736 -3.79722168 62.38030762 -3.875 63.5 C-4.65530743 74.19268544 -5.67284303 84.8421833 -6.8215332 95.50097656 C-7.55728998 102.42954507 -8.21757651 109.35694926 -8.7890625 116.30078125 C-8.85414505 117.08746689 -8.9192276 117.87415253 -8.98628235 118.68467712 C-9.30325367 122.53514056 -9.61199009 126.38605439 -9.90991211 130.23803711 C-10.47408602 137.31266484 -11.20319714 144.12125256 -13 151 C-13.33 151 -13.66 151 -14 151 C-14.44741822 140.80880725 -13.50982403 131.05226411 -12.20776367 120.95043945 C-11.24817639 113.39180117 -10.53766299 105.84978227 -10 98.25 C-8.9882157 84.13076823 -7.51611226 70.07277739 -6 56 C-5.74842781 53.64195588 -5.49712279 51.28388325 -5.24609375 48.92578125 C-4.63042056 43.15243855 -4.01008142 37.37960871 -3.38818359 31.60693359 C-2.69380487 25.15488873 -2.00343355 18.70241454 -1.3125 12.25 C-1.05861023 9.88020657 -0.80470558 7.51041473 -0.55078125 5.140625 C-0.44419189 4.14579102 -0.33760254 3.15095703 -0.2277832 2.12597656 C-0.15261475 1.4244043 -0.07744629 0.72283203 0 0 Z " fill="#CFCECE" transform="translate(202,81)"/>
<path d="M0 0 C0.33 0 0.66 0 1 0 C1.21023742 14.81850391 1.13590036 29.40466318 -0.5 44.140625 C-1.01831552 48.8618033 -1.2497902 53.56847084 -1.4375 58.3125 C-1.73092201 65.12946023 -2.44442656 71.80486192 -3.375 78.5625 C-5.24664596 92.23955579 -6.08949931 105.98798995 -6.99755859 119.75610352 C-7.08719879 121.09788918 -7.08719879 121.09788918 -7.1786499 122.46678162 C-7.29072044 124.15421856 -7.39998643 125.84184505 -7.50592041 127.52967834 C-7.78410612 131.74433639 -8.21744951 135.84108925 -9 140 C-9.33 140 -9.66 140 -10 140 C-9.5284909 126.81499565 -8.90983713 113.64044726 -8.13104248 100.47018433 C-8.04386299 98.99314766 -7.95796074 97.51603504 -7.87335205 96.03884888 C-7.75292168 93.94751214 -7.62726231 91.85655583 -7.5 89.765625 C-7.4278125 88.55680664 -7.355625 87.34798828 -7.28125 86.10253906 C-7.05279507 83.58239564 -6.63343913 81.42898922 -6 79 C-5.90121246 77.60252186 -5.84589906 76.20157891 -5.82421875 74.80078125 C-5.44080022 59.31009152 -4.03964114 44.00170312 -2.4597168 28.5949707 C-2.28551229 26.89405651 -2.1114374 25.19312903 -1.9375 23.4921875 C-1.85397781 22.67689072 -1.77045563 21.86159393 -1.68440247 21.02159119 C-0.97852425 14.02286964 -0.44088328 7.0207762 0 0 Z " fill="#7AC0DE" transform="translate(188,86)"/>
<path d="M0 0 C0.99 0.495 0.99 0.495 2 1 C2.1356886 3.87659826 2.23440753 6.74673463 2.3125 9.625 C2.35439453 10.43324219 2.39628906 11.24148437 2.43945312 12.07421875 C2.52403147 16.23547343 2.37371337 19.14372262 -0.20703125 22.5234375 C-5.21872538 26.96737327 -11.11230994 26.14388896 -17.50024414 26.12939453 C-18.45039902 26.13114685 -19.40055389 26.13289917 -20.37950134 26.13470459 C-23.51473832 26.13909962 -26.64991872 26.13619359 -29.78515625 26.1328125 C-31.96561189 26.13348616 -34.14606745 26.1344567 -36.32652283 26.13571167 C-40.8935518 26.13718541 -45.4605612 26.13504424 -50.02758789 26.13037109 C-55.8843062 26.12467063 -61.74097872 26.12795688 -67.59769535 26.13394356 C-72.09891607 26.13755499 -76.60012592 26.13640795 -81.10134697 26.13381577 C-83.26113325 26.13314829 -85.42092051 26.13396868 -87.58070564 26.13629532 C-90.59688057 26.13883172 -93.61298102 26.13496737 -96.62915039 26.12939453 C-97.52328644 26.13141876 -98.41742249 26.13344299 -99.33865356 26.13552856 C-100.16151352 26.13270874 -100.98437347 26.12988892 -101.83216858 26.12698364 C-102.54467301 26.12660662 -103.25717745 26.12622959 -103.99127293 26.12584114 C-106.09845549 25.99383204 -107.97203716 25.57365938 -110 25 C-110 24.34 -110 23.68 -110 23 C-108.0622747 23.01332367 -108.0622747 23.01332367 -106.08540344 23.0269165 C-93.9167577 23.10797067 -81.74816667 23.16795035 -69.57931232 23.20724869 C-63.32302419 23.22813151 -57.06695382 23.25646248 -50.81079102 23.30175781 C-44.77427718 23.34518981 -38.73797294 23.36913187 -32.70131493 23.37950897 C-30.39718514 23.38690502 -28.09306693 23.40134759 -25.78902626 23.42292023 C-22.56393182 23.45191822 -19.3397056 23.4559574 -16.11450195 23.45410156 C-15.16000153 23.46848267 -14.2055011 23.48286377 -13.22207642 23.49768066 C-8.98961701 23.47129258 -6.62453204 23.37453357 -2.93034363 21.15911865 C0.66262902 17.1403242 0.12032606 12.90564182 0.0625 7.8125 C0.05798828 7.06291016 0.05347656 6.31332031 0.04882812 5.54101562 C0.03706354 3.69397617 0.01912865 1.84697787 0 0 Z " fill="#CBCAC9" transform="translate(207,239)"/>
<path d="M0 0 C5.32520513 3.75896833 9.96107172 8.14779402 11.6953125 14.578125 C12.25324244 20.87733396 10.53616283 24.27169275 6.625 29.1875 C4.1640625 31.98046875 4.1640625 31.98046875 2 34 C1.34 34 0.68 34 0 34 C-0.268125 34.556875 -0.53625 35.11375 -0.8125 35.6875 C-2.10899496 38.21225334 -3.42476323 40.63714484 -5 43 C-5.66 43 -6.32 43 -7 43 C-7.33 44.32 -7.66 45.64 -8 47 C-8.66 47 -9.32 47 -10 47 C-10.27328125 47.57975586 -10.5465625 48.15951172 -10.828125 48.75683594 C-12.80546916 52.54180221 -15.44504437 55.83937527 -18 59.25 C-18.81984375 60.36761719 -18.81984375 60.36761719 -19.65625 61.5078125 C-20.1821875 62.21164063 -20.708125 62.91546875 -21.25 63.640625 C-21.72953125 64.28547852 -22.2090625 64.93033203 -22.703125 65.59472656 C-23.13109375 66.0584668 -23.5590625 66.52220703 -24 67 C-24.66 67 -25.32 67 -26 67 C-26 67.66 -26 68.32 -26 69 C-29.82117279 70.77017642 -32.8365364 71.25649686 -37.03515625 71.265625 C-38.17404297 71.26820313 -39.31292969 71.27078125 -40.48632812 71.2734375 C-41.66646484 71.26570313 -42.84660156 71.25796875 -44.0625 71.25 C-45.83850586 71.26160156 -45.83850586 71.26160156 -47.65039062 71.2734375 C-48.78798828 71.27085937 -49.92558594 71.26828125 -51.09765625 71.265625 C-52.13414307 71.26336914 -53.17062988 71.26111328 -54.23852539 71.25878906 C-56.99670987 71.00030833 -58.64852443 70.41771346 -61 69 C-58.15128401 67.575642 -55.81503532 67.97767666 -52.63671875 68.078125 C-51.35732422 68.10390625 -50.07792969 68.1296875 -48.75976562 68.15625 C-46.72492117 68.19940371 -44.6914982 68.24985767 -42.6574707 68.32226562 C-40.69287519 68.38917801 -38.72719958 68.42153515 -36.76171875 68.453125 C-35.58569092 68.48567383 -34.40966309 68.51822266 -33.19799805 68.55175781 C-29.04135371 67.83460259 -27.67564676 66.17527324 -25 63 C-23.84951172 61.68515625 -23.84951172 61.68515625 -22.67578125 60.34375 C-17.4361206 54.03883603 -12.36132279 47.63587729 -7.390625 41.1171875 C-3.31095439 35.797617 0.86922947 30.55384771 5.1640625 25.40625 C7.78692029 21.96863213 8.55838387 18.65609514 8.56640625 14.33203125 C7.54662602 10.1333499 4.57076378 7.26512743 1.75 4.1015625 C0 2 0 2 0 0 Z " fill="#CFCFCE" transform="translate(277,125)"/>
<path d="M0 0 C30.03 0 60.06 0 91 0 C91 1.98 91 3.96 91 6 C90.21496094 6.17015625 89.42992187 6.3403125 88.62109375 6.515625 C82.37251606 7.9570147 77.39817731 9.55435491 72 13 C71.01 13.33 70.02 13.66 69 14 C70.76318447 9.51189407 73.70278489 7.00156874 78.10546875 5.08203125 C80.05532086 4.34695426 82.02649526 3.66898466 84 3 C81.02310242 1.51155121 78.3013618 1.83408395 74.97998047 1.79467773 C74.25792419 1.78477814 73.53586792 1.77487854 72.79193115 1.76467896 C70.40038352 1.73303969 68.00881601 1.70829701 65.6171875 1.68359375 C63.96094236 1.66302631 62.30470249 1.6420299 60.64846802 1.62062073 C56.28538276 1.56537833 51.92224996 1.51597863 47.55908203 1.46777344 C43.10835531 1.41757423 38.65769777 1.36187993 34.20703125 1.30664062 C25.47141264 1.19903253 16.73573621 1.09759347 8 1 C7.67 2.32 7.34 3.64 7 5 C4.69 4.67 2.38 4.34 0 4 C0 2.68 0 1.36 0 0 Z " fill="#99EAF4" transform="translate(124,42)"/>
<path d="M0 0 C0 6.89490602 -3.27344301 10.86745995 -7.63671875 15.8515625 C-9.17883229 17.84972867 -9.17883229 17.84972867 -8.9765625 19.9453125 C-7.62001869 22.79948068 -5.76994442 24.8719614 -3.6875 27.25 C2.59348781 34.54480216 8.28359577 42.26026369 14 50 C13.01 50.495 13.01 50.495 12 51 C12 50.34 12 49.68 12 49 C11.4009082 48.73896484 10.80181641 48.47792969 10.18457031 48.20898438 C7.85125599 46.91768212 6.6935119 45.73278596 5.046875 43.65625 C4.51336426 42.99141602 3.97985352 42.32658203 3.43017578 41.64160156 C2.87571777 40.93487305 2.32125977 40.22814453 1.75 39.5 C0.59647149 38.04678186 -0.55717426 36.59365678 -1.7109375 35.140625 C-2.27006836 34.43228516 -2.82919922 33.72394531 -3.40527344 32.99414062 C-4.7962455 31.2547867 -6.21436736 29.54975312 -7.6640625 27.859375 C-8.39367187 26.99828125 -9.12328125 26.1371875 -9.875 25.25 C-10.83019531 24.14398438 -10.83019531 24.14398438 -11.8046875 23.015625 C-13 21 -13 21 -12.93359375 19.10546875 C-11.64390104 16.19691491 -9.97569058 13.69336296 -8.1875 11.0625 C-7.50042969 10.04285156 -6.81335938 9.02320313 -6.10546875 7.97265625 C-4.16146775 5.22797209 -2.13135841 2.60073622 0 0 Z " fill="#7BBCDB" transform="translate(75,123)"/>
<path d="M0 0 C1.44319692 0.90767102 2.87934106 1.82656106 4.3125 2.75 C5.11300781 3.26046875 5.91351563 3.7709375 6.73828125 4.296875 C9.09100857 6.0685315 10.59388442 7.40852418 12 10 C11.9116259 14.5659953 9.69249012 16.92783374 6.75 20.25 C1.76473677 25.9946324 -2.86172249 31.96711812 -7.44433594 38.03613281 C-10.53210264 42.11550717 -13.69089203 46.09757692 -17 50 C-17.495 48.515 -17.495 48.515 -18 47 C-17.34 46.01 -16.68 45.02 -16 44 C-15.34 44 -14.68 44 -14 44 C-13.34 42.35 -12.68 40.7 -12 39 C-11.34 39 -10.68 39 -10 39 C-9.77957031 38.31808594 -9.55914062 37.63617188 -9.33203125 36.93359375 C-7.62231068 33.16819742 -5.27982325 30.26073147 -2.6875 27.0625 C-2.21376953 26.46759766 -1.74003906 25.87269531 -1.25195312 25.25976562 C2.61953671 20.41378314 2.61953671 20.41378314 4.50537109 18.36279297 C7.21261069 15.54525968 7.21261069 15.54525968 8.03515625 11.8828125 C6.75879533 9.56128057 5.25313063 7.80433679 3.4375 5.875 C0 2.20925553 0 2.20925553 0 0 Z " fill="#7CBDDD" transform="translate(264,130)"/>
<path d="M0 0 C2.84516046 0.3327391 4.53675413 0.55337778 6.6328125 2.57421875 C7.12523437 3.27160156 7.61765625 3.96898438 8.125 4.6875 C8.71152344 5.49058594 9.29804688 6.29367188 9.90234375 7.12109375 C10.59457031 8.07113281 11.28679687 9.02117187 12 10 C13.87752177 12.43115886 15.78263621 14.84023637 17.6875 17.25 C18.60820913 18.42176798 19.52878682 19.59363926 20.44921875 20.765625 C22.61878901 23.5217195 24.80443722 26.26454474 27 29 C26.67 29.66 26.34 30.32 26 31 C19.66803518 26.80610122 15.43384125 22.11276441 11 16 C9.80153523 14.42775662 8.60305703 12.85552338 7.40405273 11.28369141 C1.71404087 3.8180487 1.71404087 3.8180487 0 0 Z " fill="#83DAEB" transform="translate(243,103)"/>
<path d="M0 0 C3 1 3 1 5 4 C5.86841923 8.25755975 5.9319107 12.29046846 3.8203125 16.1640625 C1.96856706 18.52968945 -0.00532324 20.75340039 -2 23 C-3.84099316 25.29037497 -5.63709849 27.61515293 -7.4375 29.9375 C-10.06957109 33.30776323 -12.71482606 36.65706355 -15.44921875 39.9453125 C-16.16722656 40.80898437 -16.88523437 41.67265625 -17.625 42.5625 C-18.57246094 43.67818359 -18.57246094 43.67818359 -19.5390625 44.81640625 C-21.16860181 47.2520011 -21.56979119 49.12716119 -22 52 C-22.33 52.66 -22.66 53.32 -23 54 C-25 51 -25 51 -24.7890625 49.04516602 C-23.91673256 46.78417965 -22.86010227 45.1910509 -21.375 43.27734375 C-20.83738037 42.57899414 -20.29976074 41.88064453 -19.74584961 41.16113281 C-19.16971924 40.42733398 -18.59358887 39.69353516 -18 38.9375 C-17.12130249 37.80393066 -17.12130249 37.80393066 -16.22485352 36.64746094 C-12.19396496 31.46717596 -8.09336084 26.34861921 -3.90234375 21.296875 C-2.96068359 20.15992188 -2.96068359 20.15992188 -2 19 C-1.26394531 18.20722656 -0.52789062 17.41445312 0.23046875 16.59765625 C2.42424279 13.37721533 2.4193234 11.53960731 2.25 7.6875 C2.19585937 6.08455078 2.19585937 6.08455078 2.140625 4.44921875 C2.09421875 3.64097656 2.0478125 2.83273438 2 2 C1.34 2 0.68 2 0 2 C0 1.34 0 0.68 0 0 Z " fill="#D1CFD0" transform="translate(103,92)"/>
<path d="M0 0 C0.66 0 1.32 0 2 0 C4.83673433 5.12794282 5.24862351 8.17520801 4.03125 13.88671875 C2.56161369 16.89835983 0.78455595 18.14885323 -2 20 C-6.28021818 20.70770161 -10.53063241 20.61710696 -14.86499023 20.57641602 C-16.9292149 20.56255563 -18.98889261 20.59663289 -21.05273438 20.63476562 C-32.14653984 20.61841112 -32.14653984 20.61841112 -35.87890625 17.65234375 C-38 15 -38 15 -39 12 C-38.34 12 -37.68 12 -37 12 C-36.15997437 13.22021851 -36.15997437 13.22021851 -35.30297852 14.46508789 C-33.2003023 17.29045738 -33.2003023 17.29045738 -29.83959961 17.59936523 C-28.01440796 17.57918335 -28.01440796 17.57918335 -26.15234375 17.55859375 C-25.49923721 17.55626236 -24.84613068 17.55393097 -24.17323303 17.55152893 C-22.79723994 17.54181415 -21.4212855 17.52007827 -20.0456543 17.48706055 C-17.94064104 17.43757384 -15.83796482 17.42557467 -13.73242188 17.41992188 C-6.50091678 17.63504693 -6.50091678 17.63504693 0 15 C1.90303799 10.5019102 1.4965326 4.48959779 0 0 Z " fill="#D0CFCE" transform="translate(104,176)"/>
<path d="M0 0 C2.71008205 0.99369675 3.79183959 1.58877401 5.1171875 4.20703125 C6.08947987 7.28308896 6.26643254 9.77922152 6.25 13 C6.25515625 14.010625 6.2603125 15.02125 6.265625 16.0625 C5.92040485 19.88022876 4.97885141 22.63387716 2.74609375 25.75 C0.2727004 27.5206619 -1.93627828 27.64385997 -4.9375 28 C-10.63389255 28.62059624 -10.63389255 28.62059624 -15 32 C-15.61600155 34.82140333 -16.01102227 37.33719271 -16.25 40.1875 C-16.32734375 40.93708984 -16.4046875 41.68667969 -16.484375 42.45898438 C-16.67244395 44.30441097 -16.83838576 46.1520687 -17 48 C-17.33 48 -17.66 48 -18 48 C-18.27139364 33.55582722 -18.27139364 33.55582722 -17 29 C-13.55413382 25.44297684 -9.12390526 25.5164931 -4.40234375 25.2109375 C-2.16469356 25.0144609 -0.1576452 24.60792775 2 24 C3.26978988 20.06774747 3.22036976 16.08897283 3.25 12 C3.270625 11.2884375 3.29125 10.576875 3.3125 9.84375 C3.33727723 6.52360109 3.22536967 4.37174379 1.484375 1.5 C0.99453125 1.005 0.5046875 0.51 0 0 Z " fill="#D0D0D0" transform="translate(221,32)"/>
<path d="M0 0 C1.98 0.495 1.98 0.495 4 1 C3.78037598 1.58394531 3.56075195 2.16789063 3.33447266 2.76953125 C2.76357993 5.01777536 2.76357993 5.01777536 4.02880859 6.82421875 C4.56328613 7.43910156 5.09776367 8.05398437 5.6484375 8.6875 C6.23778076 9.38077393 6.82712402 10.07404785 7.43432617 10.78833008 C8.39495972 11.88310669 8.39495972 11.88310669 9.375 13 C10.67262126 14.52299673 11.96818851 16.04774586 13.26171875 17.57421875 C14.21957275 18.69836182 14.21957275 18.69836182 15.19677734 19.84521484 C19.01030376 24.4022395 22.49179383 29.20622601 26 34 C26.89138672 35.05767578 26.89138672 35.05767578 27.80078125 36.13671875 C28.19652344 36.75160156 28.59226562 37.36648437 29 38 C28.67 38.99 28.34 39.98 28 41 C27.35675781 40.175 26.71351562 39.35 26.05078125 38.5 C19.7672535 30.46123109 13.39086274 22.50314332 6.9453125 14.59375 C6.45345459 13.98805176 5.96159668 13.38235352 5.45483398 12.75830078 C4.48833137 11.59019341 3.50334347 10.43712799 2.50024414 9.30029297 C1.28114038 7.91111644 0.13369571 6.45971211 -1 5 C-0.8125 2.125 -0.8125 2.125 0 0 Z " fill="#66B4D4" transform="translate(44,139)"/>
<path d="M0 0 C0.33 0 0.66 0 1 0 C1.20992725 14.79664149 1.13907785 29.36356346 -0.4921875 44.078125 C-1.13222452 49.9106078 -1.4146209 55.75092068 -1.65795898 61.61157227 C-1.8702615 66.45563495 -2.34303623 71.19493444 -3 76 C-3.33 76 -3.66 76 -4 76 C-3.32115546 50.61231803 -1.83438811 25.33016771 0 0 Z " fill="#78CFE5" transform="translate(188,86)"/>
<path d="M0 0 C1.65 0 3.3 0 5 0 C4.34 0.66 3.68 1.32 3 2 C14.71300359 3.4032191 26.47537736 3.11135353 38.25 3.0625 C40.36328019 3.05747533 42.47656154 3.05291413 44.58984375 3.04882812 C49.72659142 3.03789833 54.86328274 3.0206869 60 3 C60 3.33 60 3.66 60 4 C49.27329883 4.80689202 38.60811139 5.15960085 27.8515625 5.13037109 C25.47389543 5.12494038 23.09641193 5.13039518 20.71875 5.13671875 C19.17708292 5.13605889 17.63541596 5.13477965 16.09375 5.1328125 C15.04979065 5.13584885 15.04979065 5.13584885 13.98474121 5.13894653 C9.23636405 5.11655663 4.691936 4.66025427 0 4 C0 2.68 0 1.36 0 0 Z " fill="#2A63AB" transform="translate(104,247)"/>
<path d="M0 0 C0.33 0 0.66 0 1 0 C0.50972927 13.08248745 -0.36621869 26.00905929 -2 39 C-2.66 39 -3.32 39 -4 39 C-4.12375 40.27875 -4.2475 41.5575 -4.375 42.875 C-4.75 46.75 -4.75 46.75 -7 49 C-6.54972733 44.85325042 -6.0883126 40.70781125 -5.625 36.5625 C-5.49867187 35.39783203 -5.37234375 34.23316406 -5.2421875 33.03320312 C-4.59226055 27.26510149 -3.81498808 21.64909886 -2.45947266 16.00415039 C-1.73470788 12.84283581 -1.3115566 9.64930925 -0.875 6.4375 C-0.62363281 4.61025391 -0.62363281 4.61025391 -0.3671875 2.74609375 C-0.24601563 1.83988281 -0.12484375 0.93367187 0 0 Z " fill="#72B3D8" transform="translate(131,187)"/>
<path d="M0 0 C0.33 0 0.66 0 1 0 C1.02911321 3.0833134 1.04683682 6.16659125 1.0625 9.25 C1.07087891 10.12269531 1.07925781 10.99539062 1.08789062 11.89453125 C1.09111328 12.73886719 1.09433594 13.58320312 1.09765625 14.453125 C1.10289307 15.22817383 1.10812988 16.00322266 1.11352539 16.80175781 C0.99994151 19.00113254 0.57970999 20.88174412 0 23 C-0.2143934 24.74690919 -0.40107653 26.4974023 -0.5625 28.25 C-0.64628906 29.14203125 -0.73007813 30.0340625 -0.81640625 30.953125 C-0.87699219 31.62859375 -0.93757812 32.3040625 -1 33 C-1.66 33 -2.32 33 -3 33 C-3.33 35.64 -3.66 38.28 -4 41 C-4.33 41 -4.66 41 -5 41 C-5.27480978 32.89754387 -4.21544371 25.13576459 -3.0625 17.125 C-2.87775816 15.79433975 -2.69350988 14.46361087 -2.50976562 13.1328125 C-1.14244815 3.42734444 -1.14244815 3.42734444 0 0 Z " fill="#75D7EC" transform="translate(142,87)"/>
<path d="M0 0 C0.33 0 0.66 0 1 0 C1.21678529 5.96159539 0.82389232 11.7654805 0.1875 17.6875 C0.11740723 18.41187256 0.04731445 19.13624512 -0.02490234 19.88256836 C-0.74557114 26.15497615 -2.44671536 31.20116535 -7.5 35.3125 C-8.38171875 36.04919922 -8.38171875 36.04919922 -9.28125 36.80078125 C-11 38 -11 38 -14 39 C-14 38.34 -14 37.68 -14 37 C-13.01 36.505 -13.01 36.505 -12 36 C-11.67 35.01 -11.34 34.02 -11 33 C-9.824375 31.9790625 -9.824375 31.9790625 -8.625 30.9375 C-5.12005964 27.01530483 -4.20318846 23.03774028 -3 18 C-2.34 18 -1.68 18 -1 18 C-1.01160156 17.28714844 -1.02320313 16.57429688 -1.03515625 15.83984375 C-1.08606026 10.43674634 -0.94608271 5.32171525 0 0 Z " fill="#3A7DBD" transform="translate(130,208)"/>
<path d="M0 0 C5.80205656 5.64524422 5.80205656 5.64524422 8 9 C8 9.66 8 10.32 8 11 C4.541824 11.0868329 1.08392656 11.14033282 -2.375 11.1875 C-3.85226563 11.22520508 -3.85226563 11.22520508 -5.359375 11.26367188 C-6.77089844 11.27817383 -6.77089844 11.27817383 -8.2109375 11.29296875 C-9.08024902 11.3086792 -9.94956055 11.32438965 -10.84521484 11.34057617 C-11.55629395 11.22818604 -12.26737305 11.1157959 -13 11 C-13.66 10.01 -14.32 9.02 -15 8 C-9.06 8 -3.12 8 3 8 C2.01 6.02 1.02 4.04 0 2 C0 1.34 0 0.68 0 0 Z " fill="#70A8D6" transform="translate(89,174)"/>
<path d="M0 0 C0.33 0 0.66 0 1 0 C0.50142602 11.50158589 -1.05923286 22.66054925 -3 34 C-3.66 34 -4.32 34 -5 34 C-4.85815167 30.97893247 -4.71164333 27.95820903 -4.5625 24.9375 C-4.52318359 24.08994141 -4.48386719 23.24238281 -4.44335938 22.36914062 C-4.19996611 17.51999791 -3.77401958 12.79371788 -3 8 C-2.34 8 -1.68 8 -1 8 C-0.67 5.36 -0.34 2.72 0 0 Z " fill="#74C7E4" transform="translate(139,120)"/>
<path d="M0 0 C0.92091738 2.57856865 1.18506902 3.5943287 0.0234375 6.140625 C-0.48316406 7.06101563 -0.48316406 7.06101563 -1 8 C1.41700987 7.85870713 3.83350429 7.71213513 6.25 7.5625 C6.93191406 7.52318359 7.61382812 7.48386719 8.31640625 7.44335938 C11.64448041 7.23333528 14.80255402 6.98065998 18 6 C16.80541992 7.97558594 16.80541992 7.97558594 15 10 C12.73168945 10.45410156 12.73168945 10.45410156 10.11328125 10.390625 C9.17548828 10.37773437 8.23769531 10.36484375 7.27148438 10.3515625 C6.29501953 10.31804687 5.31855469 10.28453125 4.3125 10.25 C3.32443359 10.23195312 2.33636719 10.21390625 1.31835938 10.1953125 C-1.12206842 10.14815447 -3.56054769 10.08236042 -6 10 C-4.52069807 6.03520428 -2.76352943 3.22411767 0 0 Z " fill="#6DA8D7" transform="translate(228,175)"/>
<path d="M0 0 C0.33 0 0.66 0 1 0 C1.26963198 9.30355153 0.42278806 18.44620076 -0.5 27.6875 C-0.6450127 29.17898973 -0.78954727 30.67052602 -0.93359375 32.16210938 C-1.28356165 35.77529219 -1.63996149 39.38780509 -2 43 C-2.33 43 -2.66 43 -3 43 C-3.516592 12.76744663 -3.516592 12.76744663 0 0 Z " fill="#8DE6F1" transform="translate(192,56)"/>
<path d="M0 0 C0.33 0 0.66 0 1 0 C1.289388 33.065918 1.289388 33.065918 -2 38 C-2.45139459 40.0492094 -2.45139459 40.0492094 -2.625 42.1875 C-2.74875 43.445625 -2.8725 44.70375 -3 46 C-3.33 46 -3.66 46 -4 46 C-4.08432934 39.92565252 -3.81675478 34.05881959 -3.125 28.02734375 C-3.03621582 27.21882462 -2.94743164 26.41030548 -2.85595703 25.57728577 C-2.57520616 23.03015934 -2.28772824 20.48384667 -2 17.9375 C-1.80684356 16.19601319 -1.61413123 14.45447705 -1.421875 12.71289062 C-0.95304194 8.47467371 -0.47818015 4.23717208 0 0 Z " fill="#DDDDDC" transform="translate(196,137)"/>
<path d="M0 0 C0 3 0 3 -2 6 C-2.66 6 -3.32 6 -4 6 C-4 6.66 -4 7.32 -4 8 C-6.26305649 10.51450721 -8.16865512 12.60742047 -11.25 14.0625 C-13.22094022 14.8653367 -13.22094022 14.8653367 -13.75 17.125 C-13.8325 17.74375 -13.915 18.3625 -14 19 C-14.99 18.67 -15.98 18.34 -17 18 C-15.11752089 15.55192292 -13.21678335 13.11864252 -11.3125 10.6875 C-10.78205078 9.99720703 -10.25160156 9.30691406 -9.70507812 8.59570312 C-6.79121537 4.89527619 -4.33149873 2.09744187 0 0 Z " fill="#85CEE4" transform="translate(62,120)"/>
<path d="M0 0 C7.26 0 14.52 0 22 0 C21.34 1.32 20.68 2.64 20 4 C19.67 3.34 19.34 2.68 19 2 C16.43719792 2.14154136 13.87484515 2.28808562 11.3125 2.4375 C10.59126953 2.47681641 9.87003906 2.51613281 9.12695312 2.55664062 C5.33292718 2.78185678 1.71348508 3.12839305 -2 4 C-1.34 2.68 -0.68 1.36 0 0 Z " fill="#9FE1F0" transform="translate(75,100)"/>
<path d="M0 0 C5.28 0 10.56 0 16 0 C14.86382265 5.68088674 13.71674706 6.90204811 10 11 C8.7922442 7.37673261 9.45688872 6.35853631 11 3 C8.70370006 1.85185003 6.92301914 1.69230191 4.375 1.4375 C3.55773437 1.35371094 2.74046875 1.26992187 1.8984375 1.18359375 C1.27195312 1.12300781 0.64546875 1.06242187 0 1 C0 0.67 0 0.34 0 0 Z " fill="#78D3EB" transform="translate(78,102)"/>
<path d="M0 0 C3.62484999 -0.08681476 7.24943443 -0.14032721 10.875 -0.1875 C12.42380859 -0.22520508 12.42380859 -0.22520508 14.00390625 -0.26367188 C14.99003906 -0.27333984 15.97617188 -0.28300781 16.9921875 -0.29296875 C17.90339355 -0.3086792 18.81459961 -0.32438965 19.75341797 -0.34057617 C20.49479004 -0.22818604 21.23616211 -0.1157959 22 0 C22.66 0.99 23.32 1.98 24 3 C16.33333333 3 8.66666667 3 1 3 C0.67 2.01 0.34 1.02 0 0 Z " fill="#9DE3F0" transform="translate(222,100)"/>
<path d="M0 0 C1.69455485 1.644715 3.35630176 3.30520233 5 5 C5.80824219 5.83144531 5.80824219 5.83144531 6.6328125 6.6796875 C10.00111252 10.34088318 11.74778942 12.82968317 12 18 C6.32966044 12.49167014 1.7371174 7.89598816 0 0 Z " fill="#7CCFE7" transform="translate(236,114)"/>
<path d="M0 0 C4.21814817 3.9700218 7.61227103 8.30840284 11 13 C10.34 14.32 9.68 15.64 9 17 C8.59974609 16.13181641 8.59974609 16.13181641 8.19140625 15.24609375 C6.97018543 12.94379221 5.57054766 11.08876307 3.9375 9.0625 C1.64440549 6.07757163 0.24143294 3.86292707 0 0 Z " fill="#76C8E0" transform="translate(247,128)"/>
<path d="M0 0 C0.66 0.66 1.32 1.32 2 2 C1.69320312 2.73476563 1.38640625 3.46953125 1.0703125 4.2265625 C-0.44193146 9.55805032 -0.72892714 14.86244491 -1.125 20.375 C-1.21136719 21.49261719 -1.29773438 22.61023438 -1.38671875 23.76171875 C-1.59792285 26.50737208 -1.80212987 29.25335893 -2 32 C-2.33 32 -2.66 32 -3 32 C-3.22638063 7.72696613 -3.22638063 7.72696613 -2 2 C-1.34 1.34 -0.68 0.68 0 0 Z " fill="#C7F1F4" transform="translate(195,54)"/>
<path d="M0 0 C0.7425 0.45375 1.485 0.9075 2.25 1.375 C7.12213424 3.85814088 12.64597165 4.26360452 18 5 C18 7.64 18 10.28 18 13 C17.67 13 17.34 13 17 13 C17 11.02 17 9.04 17 7 C11.72 6.34 6.44 5.68 1 5 C0.67 3.35 0.34 1.7 0 0 Z " fill="#5A91CC" transform="translate(180,240)"/>
<path d="M0 0 C0.90105469 0.01804688 1.80210937 0.03609375 2.73046875 0.0546875 C3.41753906 0.07789063 4.10460937 0.10109375 4.8125 0.125 C4.8125 0.455 4.8125 0.785 4.8125 1.125 C3.87277344 1.30675781 3.87277344 1.30675781 2.9140625 1.4921875 C2.09679687 1.65976562 1.27953125 1.82734375 0.4375 2 C-0.37460938 2.16242187 -1.18671875 2.32484375 -2.0234375 2.4921875 C-4.37423923 2.99158932 -4.37423923 2.99158932 -6.1875 5.125 C-6.65409731 7.84969786 -7.02349254 10.50679802 -7.3125 13.25 C-7.39886719 14.00410156 -7.48523438 14.75820312 -7.57421875 15.53515625 C-7.78639261 17.39757127 -7.98795763 19.26118931 -8.1875 21.125 C-8.5175 21.125 -8.8475 21.125 -9.1875 21.125 C-9.28164525 16.11438065 -9.28132456 11.12279212 -8.875 6.125 C-8.81699219 5.403125 -8.75898438 4.68125 -8.69921875 3.9375 C-7.47855041 -0.38608861 -3.73093152 -0.09690731 0 0 Z " fill="#CFCECF" transform="translate(212.1875,58.875)"/>
<path d="M0 0 C0.33 0 0.66 0 1 0 C1 5.61 1 11.22 1 17 C1.66 17 2.32 17 3 17 C4.4606285 19.64738916 5 20.89448334 5 24 C4.34 24 3.68 24 3 24 C-1.32738495 18.98023346 -1.25866511 11.83786834 -0.83203125 5.5078125 C-0.6057641 3.66488297 -0.3108502 1.83056227 0 0 Z " fill="#3375BB" transform="translate(175,219)"/>
<path d="M0 0 C3.63 0.33 7.26 0.66 11 1 C11.33 2.65 11.66 4.3 12 6 C9.69 6 7.38 6 5 6 C5 5.01 5 4.02 5 3 C2.525 2.01 2.525 2.01 0 1 C0 0.67 0 0.34 0 0 Z " fill="#21549F" transform="translate(184,245)"/>
<path d="M0 0 C3.27542106 3.12482699 6.05830899 6.47181802 8.8125 10.0625 C9.23208984 10.59166016 9.65167969 11.12082031 10.08398438 11.66601562 C11.26953125 13.22265625 11.26953125 13.22265625 13 16 C12.67 16.99 12.34 17.98 12 19 C10.1760468 16.77940459 8.36602677 14.54958834 6.5625 12.3125 C6.04623047 11.68666016 5.52996094 11.06082031 4.99804688 10.41601562 C2.27737418 7.0196203 0.33535141 4.49714835 0 0 Z " fill="#5C9FCA" transform="translate(60,161)"/>
<path d="M0 0 C2.08519216 0.2561291 4.1681505 0.53048735 6.25 0.8125 C7.41015625 0.96332031 8.5703125 1.11414062 9.765625 1.26953125 C13.02378332 2.00537135 14.69624414 2.60590077 17 5 C17.25 8.6875 17.25 8.6875 17 12 C16.67 12 16.34 12 16 12 C15.87625 10.6078125 15.87625 10.6078125 15.75 9.1875 C14.33929678 5.77750333 14.33929678 5.77750333 11.265625 5.0390625 C9.10375256 4.55807174 6.93095394 4.12361806 4.75 3.73828125 C2 3 2 3 0 0 Z " fill="#CCCCCA" transform="translate(116,56)"/>
<path d="M0 0 C-0.33 0.99 -0.66 1.98 -1 3 C-5.380916 4.69262664 -10.32624426 5.30153263 -15 5 C-15 6.98 -15 8.96 -15 11 C-15.33 11 -15.66 11 -16 11 C-16 8.36 -16 5.72 -16 3 C-15.15695313 2.86722656 -14.31390625 2.73445312 -13.4453125 2.59765625 C-12.34960938 2.42105469 -11.25390625 2.24445313 -10.125 2.0625 C-8.48917969 1.80146484 -8.48917969 1.80146484 -6.8203125 1.53515625 C-4.32604896 1.06186802 -2.49236265 0 0 0 Z " fill="#5D9DD0" transform="translate(119,242)"/>
<path d="M0 0 C4.89367634 2.79129597 8.74897716 5.25892502 12 10 C11.67 10.66 11.34 11.32 11 12 C9.72390677 11.09066991 8.45434447 10.17217147 7.1875 9.25 C6.47980469 8.73953125 5.77210938 8.2290625 5.04296875 7.703125 C2.94979179 5.95814383 1.47376367 4.2873556 0 2 C0 1.34 0 0.68 0 0 Z " fill="#8AD4E7" transform="translate(258,122)"/>
<path d="M0 0 C0.33 0.99 0.66 1.98 1 3 C0.10375977 4.62573242 0.10375977 4.62573242 -1.30859375 6.35546875 C-2.05786133 7.28842773 -2.05786133 7.28842773 -2.82226562 8.24023438 C-3.35529297 8.88283203 -3.88832031 9.52542969 -4.4375 10.1875 C-4.96666016 10.84169922 -5.49582031 11.49589844 -6.04101562 12.16992188 C-7.35152928 13.78740269 -8.67460942 15.39468693 -10 17 C-10.33 16.01 -10.66 15.02 -11 14 C-10.34 13.01 -9.68 12.02 -9 11 C-8.34 11 -7.68 11 -7 11 C-6.34 9.35 -5.68 7.7 -5 6 C-4.34 6 -3.68 6 -3 6 C-2.690625 5.195625 -2.38125 4.39125 -2.0625 3.5625 C-1 1 -1 1 0 0 Z " fill="#6BAAD8" transform="translate(257,163)"/>
<path d="M0 0 C1 2 1 2 -0.125 5.5625 C-2 9 -2 9 -4.6875 9.9375 C-5.450625 9.958125 -6.21375 9.97875 -7 10 C-5.33248852 6.05860922 -2.77289351 3.2107188 0 0 Z " fill="#74CAE6" transform="translate(87,108)"/>
<path d="M0 0 C2.84381248 1.4640128 5.51980792 2.97075193 8 5 C9 8.3125 9 8.3125 9 11 C2.21917808 5.57534247 2.21917808 5.57534247 0 2 C0 1.34 0 0.68 0 0 Z " fill="#69BFDE" transform="translate(264,130)"/>
<path d="M0 0 C3.26008643 3.16952847 6.22237877 6.39937989 9 10 C8.67 10.66 8.34 11.32 8 12 C2.45665962 9.10782241 2.45665962 9.10782241 1.15625 5.953125 C0.68238829 3.98799263 0.33232555 1.99395333 0 0 Z " fill="#97DCEA" transform="translate(254,113)"/>
<path d="M0 0 C2.875 0.5 2.875 0.5 6 2 C7.18275852 4.68310961 7.52711756 7.0681289 8 10 C4.71211176 6.88983545 2.16264012 3.98381075 0 0 Z " fill="#78D1E9" transform="translate(248,110)"/>
<path d="M0 0 C0.33 0 0.66 0 1 0 C1.39169887 2.66355234 1.40564529 4.39224373 -0.11328125 6.66796875 C-1.36389317 8.1510888 -2.67864514 9.57954352 -4 11 C-4.99 10.67 -5.98 10.34 -7 10 C-6.57847656 9.52949219 -6.15695313 9.05898437 -5.72265625 8.57421875 C-5.17480469 7.95160156 -4.62695312 7.32898438 -4.0625 6.6875 C-3.51722656 6.07261719 -2.97195312 5.45773438 -2.41015625 4.82421875 C-0.79918441 2.94758042 -0.79918441 2.94758042 0 0 Z " fill="#93D1E5" transform="translate(254,141)"/>
<path d="M0 0 C1.98 0.495 1.98 0.495 4 1 C3.79375 1.598125 3.5875 2.19625 3.375 2.8125 C2.69328085 5.28450846 2.69328085 5.28450846 5 8 C2.13275314 7.42655063 1.1385485 7.1385485 -1 5 C-0.625 2.375 -0.625 2.375 0 0 Z " fill="#6FBEDB" transform="translate(44,139)"/>
<path d="M0 0 C2.64 0 5.28 0 8 0 C7.67 1.32 7.34 2.64 7 4 C4.69 3.67 2.38 3.34 0 3 C0 2.01 0 1.02 0 0 Z " fill="#76E2F1" transform="translate(124,43)"/>
<path d="M0 0 C2.97 0 5.94 0 9 0 C9 0.99 9 1.98 9 3 C5.625 3.1875 5.625 3.1875 2 3 C1.34 2.01 0.68 1.02 0 0 Z " fill="#84E5F0" transform="translate(206,43)"/>
<path d="M0 0 C2.96404505 2.80804268 5.44499019 5.18315774 7 9 C6.01 9 5.02 9 4 9 C0 2.25 0 2.25 0 0 Z " fill="#82B8D9" transform="translate(89,174)"/>
<path d="M0 0 C2.0625 1.6875 2.0625 1.6875 4 4 C3.875 6.6875 3.875 6.6875 3 9 C2.01 9.495 2.01 9.495 1 10 C0.67 6.7 0.34 3.4 0 0 Z " fill="#8DCCE2" transform="translate(272,136)"/>
<path d="M0 0 C1.65 0 3.3 0 5 0 C4.34 0.66 3.68 1.32 3 2 C5.31 2.33 7.62 2.66 10 3 C10 3.33 10 3.66 10 4 C6.7 4 3.4 4 0 4 C0 2.68 0 1.36 0 0 Z " fill="#1D55A3" transform="translate(104,247)"/>
<path d="M0 0 C-1.26941497 3.91402949 -2.51167694 5.79072873 -6 8 C-5.62403791 5.21788056 -5.32681541 3.4120716 -3.5625 1.1875 C-2 0 -2 0 0 0 Z " fill="#9BDCF0" transform="translate(93,105)"/>
<path d="M0 0 C0.75 1.75 0.75 1.75 1 4 C-0.8125 6.25 -0.8125 6.25 -3 8 C-3.66 8 -4.32 8 -5 8 C-3.62845496 5.04590299 -2.01136276 2.55991624 0 0 Z " fill="#77B5D7" transform="translate(228,175)"/>
<path d="M0 0 C0 3 0 3 -2 6 C-2.66 6 -3.32 6 -4 6 C-4.33 6.66 -4.66 7.32 -5 8 C-5.3125 5.6875 -5.3125 5.6875 -5 3 C-2.5 1.1875 -2.5 1.1875 0 0 Z " fill="#67BFDF" transform="translate(62,120)"/>
<path d="M0 0 C0.33 0 0.66 0 1 0 C1 1.65 1 3.3 1 5 C-0.98 5.99 -2.96 6.98 -5 8 C-3.6299034 5.0490227 -2.06764583 2.51713405 0 0 Z " fill="#96D8E8" transform="translate(63,115)"/>
<path d="M0 0 C3.3 0 6.6 0 10 0 C10 0.33 10 0.66 10 1 C9.38511719 1.13277344 8.77023438 1.26554687 8.13671875 1.40234375 C6.92435547 1.66724609 6.92435547 1.66724609 5.6875 1.9375 C4.48673828 2.19853516 4.48673828 2.19853516 3.26171875 2.46484375 C0.854599 2.99886159 0.854599 2.99886159 -2 4 C-1.34 2.68 -0.68 1.36 0 0 Z " fill="#BEBCBB" transform="translate(207,59)"/>
<path d="M0 0 C0.66 0.66 1.32 1.32 2 2 C1.34 3.98 0.68 5.96 0 8 C-0.66 8 -1.32 8 -2 8 C-2.125 5.125 -2.125 5.125 -2 2 C-1.34 1.34 -0.68 0.68 0 0 Z " fill="#B3EFF3" transform="translate(195,54)"/>
<path d="M0 0 C0.8971875 0.309375 0.8971875 0.309375 1.8125 0.625 C-1.1340385 2.42566242 -4.07551935 4.12663895 -7.1875 5.625 C-5.69046729 2.17030914 -4.27938051 -0.73360809 0 0 Z " fill="#EAEAEA" transform="translate(101.1875,235.375)"/>
<path d="M0 0 C0.33 0.99 0.66 1.98 1 3 C-1.31 4.98 -3.62 6.96 -6 9 C-4.25618453 5.51236907 -2.47193291 2.96631949 0 0 Z " fill="#E2F2F7" transform="translate(274,145)"/>
<path d="M0 0 C1.32 1.32 2.64 2.64 4 4 C3.34 5.32 2.68 6.64 2 8 C0.23537317 4.91190305 0 3.76687864 0 0 Z " fill="#6BC2DC" transform="translate(254,137)"/>
<path d="M0 0 C2.4375 1.1875 2.4375 1.1875 5 3 C5.8125 5.6875 5.8125 5.6875 6 8 C1.125 3.375 1.125 3.375 0 0 Z " fill="#69C5E2" transform="translate(258,122)"/>
</svg>
